<svg xmlns="http://www.w3.org/2000/svg" width="538.022" height="520.25" xmlns:v="https://vecta.io/nano"><path d="M490.839 497.713a2.81 2.81 0 0 1-2.035-4.866l.192-.765q-.038-.092-.076-.184a7.54 7.54 0 0 0-13.907.052c-2.275 5.478-5.17 10.966-5.883 16.758-.314 2.56-.182 5.156.392 7.671a89.42 89.42 0 0 1-8.134-37.139 86.51 86.51 0 0 1 .535-9.628q.443-3.931 1.231-7.807a90.45 90.45 0 0 1 17.938-38.337 24.07 24.07 0 0 0 10.012-10.387 18.36 18.36 0 0 0 1.67-5.018c-.487.064-1.838-7.359-1.47-7.815-.679-1.031-1.895-1.543-2.637-2.549-3.689-5.002-8.773-4.129-11.426 2.669-5.669 2.861-5.724 7.606-2.245 12.169 2.213 2.903 2.517 6.832 4.459 9.94l-.607.759a91.04 91.04 0 0 0-9.502 15.054c.649-5.956-.126-11.981-2.259-17.579-2.163-5.217-6.216-9.611-9.786-14.122-4.288-5.418-13.08-3.053-13.836 3.814q-.011.1-.021.199.795.449 1.557.952a3.81 3.81 0 0 1-1.535 6.93l-.078.012a37.89 37.89 0 0 0 .999 5.665c-4.579 17.71 5.307 24.16 19.424 24.45l.927.471a92.9 92.9 0 0 0-5.002 23.539 88.16 88.16 0 0 0 .064 14.231l-.024-.168a23.29 23.29 0 0 0-7.95-13.448c-6.118-5.026-14.762-6.877-21.363-10.917a4.37 4.37 0 0 0-6.694 4.252q.013.088.027.176a25.58 25.58 0 0 1 2.868 1.382q.795.449 1.557.952a3.81 3.81 0 0 1-1.535 6.93l-.078.012-.16.024a37.94 37.94 0 0 0 6.975 10.923c2.863 15.46 15.162 16.927 28.318 12.425h.008a92.92 92.92 0 0 0 6.24 18.218h22.293c.08-.248.152-.503.224-.751a25.33 25.33 0 0 1-6.169-.367l4.962-6.105c.037-.038.072-.078.104-.12l2.525-3.108v-.001a37.1 37.1 0 0 0-1.087-9.451zm-37.146-198.235c5.908-21.452 16.929-39.723 34.723-53.778 1.466-2.265 4.488-2.915 6.756-1.455l40.615 26.224c2.265 1.466 2.915 4.488 1.455 6.756l-34.723 53.778c-1.466 2.265-4.488 2.915-6.756 1.455l-40.615-26.224c-2.265-1.466-2.915-4.488-1.455-6.756z" fill="#f2f2f2"/><path d="M467.296 285.246c1.522-11.334 10.899-22.921 22.323-34.574 1.373-2.121 4.203-2.73 6.328-1.362l34.905 22.537c2.121 1.373 2.731 4.203 1.363 6.328l-30.899 47.855c-1.373 2.121-4.204 2.73-6.328 1.362l-21.623-13.961c-9.448-6.115-12.162-18.724-6.069-28.185z" fill="#fff"/><path d="M470.411 331.461c-5.154-21.646-4.294-42.966 4.531-63.854.194-2.691 2.529-4.717 5.221-4.529l48.224 3.422c2.691.194 4.717 2.529 4.529 5.221l-4.531 63.854c-.194 2.691-2.529 4.717-5.221 4.529l-48.224-3.422c-2.691-.194-4.717-2.529-4.529-5.221z" fill="#f2f2f2"/><path d="M475.478 312.437c-4.125-10.667-1.487-25.337 2.913-41.051.182-2.52 2.369-4.417 4.889-4.241l41.444 2.941c2.52.182 4.418 2.369 4.242 4.889l-4.032 56.821c-.182 2.52-2.369 4.417-4.889 4.241l-25.674-1.822c-11.225-.809-19.677-10.552-18.893-21.778z" fill="#fff"/><path d="M474.569 197.834l-20.659-76.467c-1.841-6.735-8.745-10.748-15.508-9.013h0c-3.399.872-6.29 3.101-7.996 6.167s-2.077 6.698-1.027 10.045l23.895 78.772 12.502 48.477c-3.73 2.848-5.279 7.726-3.875 12.205a11.16 11.16 0 0 0 10.149 7.809c4.689.21 9.007-2.538 10.804-6.874s.689-9.332-2.773-12.501zm-148.994 13.228l21.187-76.323c1.848-6.733-2.048-13.704-8.752-15.657h0c-3.368-.982-6.992-.536-10.022 1.232s-5.2 4.705-6.002 8.12l-19.577 79.955-13.944 48.082c-4.661.55-8.479 3.958-9.553 8.527s.826 9.321 4.754 11.89a11.16 11.16 0 0 0 12.798-.409c3.755-2.814 5.348-7.679 3.984-12.169zm121.241 293.177l-13.501-.001-6.422-52.073 19.925.001-.002 52.073z" fill="#ffb6b6"/><path d="M447.291 518.323l-41.515-.002v-.525c.001-8.924 7.235-16.158 16.159-16.159h.001l7.583-5.753 14.149 5.754h3.624z" fill="#2f2e41"/><path fill="#ffb6b6" d="M351.81 504.375l-13.291-2.371 2.818-52.393 19.616 3.499-9.143 51.265z"/><path d="M349.806 518.323l-40.871-7.289.092-.517c1.567-8.785 9.959-14.637 18.744-13.071h.001l8.475-4.333 12.919 8.148 3.568.636zm3.32-253.509s-12.582 17.821-12.069 23.802 4.956 1.21.513 5.98-7.032 1.57-4.849 7.464 3.072 2.077 2.183 5.894.889 149.805.889 149.805h23.137s13.048-84.651 11.396-88.603-1.614-2.232.145-6.431 3.413-9.196 3.413-9.196l18.288-51.469 14.107 72.467 16.605 86.112h22.172l5.475-128.208c1.679-1.578-.33-5.124-2.436-7.167s-1.686-4.119-1.008-8.329 3.542-6.559 3.443-9.201 6.122-44.626-3.653-51.305-97.752 8.385-97.752 8.385z" fill="#2f2e41"/><g fill="#04beab"><path d="M430.487 87.299l-25.881-6.706-12.081-16.662-28.691 3.527-6.107 22.728-20.425 11.856c36.614.219 16.897 106.293 22.278 113.137 4.379 5.569-21.858 18.819-13.635 27.271s5.183 5.07 3.275 14.271-15.818 18.94 0 18.843 111.265-1.46 108.538-12.368-2.684-8.138-6.796-14.977-6.88-3.017-5.496-13.109-3.111-17.898.02-22.364c4.806-6.855-.037-56.337-4.569-55.017z"/><path d="M423.098 87.653s18.932-8.043 25.749 6.956c2.178 4.791 4.011 16.823 5.778 14.155s.062 3.181 1.156 3.189c.976.006 2.477-1.572 1.343 3.867-.722 3.627.466 7.37 3.148 9.917l-32.904 19.706zm-71.13 13.635s-18.932-8.043-25.749 6.956c-1.917 4.218-1.44 13.591-5.174 12.539s-1.083 2.913-1.576 4.29c-.549 1.535 1.848 5.88-1.519 4.359s-3.155 9.939-3.155 9.939l32.904 19.706z"/></g><path d="M360.944 78.825l-5.454 9.545s-14.999 8.181-14.999 9.545 2.727 12.497 0 21.247 5.206 25.206 6.818 38.748c6.818 57.268-13.456 78.077-17.726 114.537l43.268 12.637 7.183-117.629c0-21.817-19.089-88.63-19.089-88.63zm39.543-4.09l11.146 6.34s14.587 3.216 14.761 4.568.226 15.725 4.048 24.056 2.769 12.76 13.064 37.386c5.26 12.582 17.335 113.25 17.335 113.25l-41.299 18.06-22.149-115.748c-2.787-21.638 3.094-87.912 3.094-87.912z" fill="#2f2e41"/><circle cx="372.616" cy="33.541" r="28.194" fill="#ffb6b6"/><path d="M391.171 55.446c-6.665-5.209 2.446-28.126-8.56-23.234 0 0-13.451-8.56-16.154-2.935-3.129 6.513-14.259 3.559-21.094 1.26a16.61 16.61 0 0 0 1.137-3.901 31.23 31.23 0 0 1-3.999 2.678c-.939-.502-1.77-1.183-2.446-2.006-1.366-1.564-1.615-3.813-.624-5.637 1.137-1.749 3.485-2.287 4.867-3.84a1.67 1.67 0 0 0 .23-1.536c-.333-1.265-.086-2.613.675-3.677s1.957-1.734 3.262-1.826a1.58 1.58 0 0 0 .749-.163c1.16-.71 2.232-1.556 3.192-2.519-1.602.073.357-9.732 16.24-7.875 3.999-.147 6.087 4.263 10.024 4.96 9.545-5.454 18.065 2.413 22.21 9.934s8.633 31.758-9.709 40.318z" fill="#2f2e41"/><path d="M270.87 15H18.14A18.16 18.16 0 0 0 0 33.13v227.73c.013 10.013 8.127 18.127 18.14 18.14h252.73A18.16 18.16 0 0 0 289 260.86V33.13A18.15 18.15 0 0 0 270.87 15z" fill="#fff"/><path d="M155.394 67.268h-27a5 5 0 1 1 0-10h27a5 5 0 1 1 0 10zm358 229.732h-27a5 5 0 1 1 0-10h27a5 5 0 1 1 0 10z" fill="#04beab"/><g fill="#e6e6e6"><path d="M225.394 172h-167a5 5 0 1 1 0-10h167a5 5 0 1 1 0 10zm0 33h-167a5 5 0 1 1 0-10h167a5 5 0 1 1 0 10zm0 33h-167a5 5 0 1 1 0-10h167a5 5 0 1 1 0 10zM191.26 82.27H92.53a18.16 18.16 0 0 0-18.14 18.13v29.73c.013 10.013 8.127 18.127 18.14 18.14h98.73a18.16 18.16 0 0 0 18.13-18.14V100.4a18.15 18.15 0 0 0-18.13-18.13zm16.13 47.86c0 8.914-7.226 16.14-16.14 16.14h-70.873c-24.293 0-43.987-19.694-43.987-43.987V100.4a16.16 16.16 0 0 1 16.14-16.13h98.73a16.15 16.15 0 0 1 16.13 16.13z"/><circle cx="143" cy="109" r="17"/><path d="M182.11 148.27L106 148l24-6 2.99-9.87L156 132l6.89 9.76 17.4 4.51 1.58.41.24 1.59zm-48.772-28.416c3.648-2.851-1.339-15.395 4.686-12.718 0 0 7.363-4.686 8.842-1.606 1.713 3.565 7.805 1.948 11.547.689a9.09 9.09 0 0 1-.623-2.135 17.19 17.19 0 0 0 2.189 1.466c.514-.275.969-.648 1.339-1.098a2.72 2.72 0 0 0 .341-3.086c-.623-.957-1.908-1.252-2.664-2.102a.92.92 0 0 1-.126-.841c.183-.692.047-1.43-.37-2.013s-1.071-.949-1.786-1c-.142.004-.283-.026-.41-.089a9.38 9.38 0 0 1-1.747-1.379c.877.04-.195-5.327-8.889-4.311-2.189-.08-3.332 2.334-5.487 2.715-5.225-2.985-9.888 1.321-12.157 5.438s-4.726 17.383 5.315 22.069zM270.87 15H18.14A18.16 18.16 0 0 0 0 33.13v227.73c.013 10.013 8.127 18.127 18.14 18.14h252.73A18.16 18.16 0 0 0 289 260.86V33.13A18.15 18.15 0 0 0 270.87 15zM287 260.86c0 8.914-7.226 16.14-16.14 16.14H132.201A130.2 130.2 0 0 1 2 146.799V33.13A16.16 16.16 0 0 1 18.14 17h252.73A16.15 16.15 0 0 1 287 33.13z"/></g><path d="M534.907 519.943l-315.357.307a1.19 1.19 0 1 1 0-2.381l315.358-.307a1.19 1.19 0 1 1 0 2.381z" fill="#cacaca"/></svg>